# xmcd CD database file
#
# Track frame offsets:
#	225
#	14958
#	34127
#	48586
#	66142
#	82631
#	98837
#	116141
#	132435
#	146596
#	163780
#	176542
#	194216
#	208043
#	222968
#	238561
#
# Disc length: 3371 seconds
#
# Revision: 0
# Processed by: cddbd v1.5.2PL0 Copyright (c) Steve Scherf et al.
# Submitted via: CDex 1.51
#
DISCID=f30d2810
DTITLE=Tennessee - Tennessee 94
DYEAR=1994
DGENRE=Country
TTITLE0=Knitterfreier Flug
TTITLE1=Flieg doch mit
TTITLE2=Der heiﬂe Wind
TTITLE3=Ich brauch noch Zeit
TTITLE4=Komm mit mir
TTITLE5=Hey M‰dchen du tr‰umst
TTITLE6=Heut Nacht laﬂ ich die Flasche stehn
TTITLE7=Sowas nennst du nun Liebe
TTITLE8=S.O.S.
TTITLE9=Hallo hier ist Jens
TTITLE10=Immer wenn ich down bin
TTITLE11=Oh Susi
TTITLE12=Wo bist Du
TTITLE13=Ein Liebeslied
TTITLE14=Ich kann nich aufhˆr'n Dich zu lieben
TTITLE15=Laﬂ es uns noch mal versuchen
EXTD=YEAR: 1994
EXTT0=
EXTT1=
EXTT2=
EXTT3=
EXTT4=
EXTT5=
EXTT6=
EXTT7=
EXTT8=
EXTT9=
EXTT10=
EXTT11=
EXTT12=
EXTT13=
EXTT14=
EXTT15=
PLAYORDER=
